<svg width="7" height="15" viewBox="0 0 7 15" fill="none" xmlns="http://www.w3.org/2000/svg">
<path fill-rule="evenodd" clip-rule="evenodd" d="M6.97816 6.95786C6.94327 6.89003 6.87244 6.84605 6.79381 6.84398L3.81877 6.77209L6.3114 0.275449C6.34907 0.177279 6.304 0.0675189 6.20673 0.0211606C6.10982 -0.0251977 5.99208 0.0068441 5.93432 0.0954702L0.0325233 9.16942C-0.0101182 9.23487 -0.0108231 9.31804 0.0303736 9.38417C0.0719931 9.4503 0.148078 9.48882 0.22811 9.48234L3.16157 9.25563L0.771878 14.7157C0.730294 14.8112 0.769024 14.9223 0.8628 14.9734C0.895538 14.9911 0.931167 15 0.96676 15C1.03231 15 1.0968 14.9703 1.13764 14.9154L6.95948 7.16886C7.00565 7.1075 7.01305 7.02603 6.97816 6.95786" fill="currentColor"/>
</svg>
